<?xml version="1.0" encoding="utf-8"?>
<!-- Generator: Adobe Illustrator 18.0.0, SVG Export Plug-In . SVG Version: 6.00 Build 0)  -->
<!DOCTYPE svg PUBLIC "-//W3C//DTD SVG 1.1//EN" "http://www.w3.org/Graphics/SVG/1.1/DTD/svg11.dtd">
<svg version="1.1" id="Warstwa_1" xmlns="http://www.w3.org/2000/svg" xmlns:xlink="http://www.w3.org/1999/xlink" x="0px" y="0px"
	 viewBox="0 0 100 100" enable-background="new 0 0 100 100" xml:space="preserve">
<path fill-rule="evenodd" clip-rule="evenodd" d="M35.4,45l41.2,40.6c3.3,3.3,3.3,8.7,0,12c-3.3,3.3-8.7,3.3-12.1,0L23.3,57
	c-3.3-3.3-3.3-8.7,0-12C26.7,41.7,32.1,41.7,35.4,45z"/>
<path fill-rule="evenodd" clip-rule="evenodd" d="M23.5,42.6L64.3,2.5c3.3-3.3,8.7-3.3,12,0c3.3,3.3,3.3,8.6,0,11.9L35.5,54.5
	c-3.3,3.3-8.7,3.3-12,0C20.2,51.2,20.2,45.9,23.5,42.6z"/>
</svg>
