<?xml version="1.0" encoding="utf-8"?>
<!-- Generator: Adobe Illustrator 18.0.0, SVG Export Plug-In . SVG Version: 6.00 Build 0)  -->
<!DOCTYPE svg PUBLIC "-//W3C//DTD SVG 1.1//EN" "http://www.w3.org/Graphics/SVG/1.1/DTD/svg11.dtd">
<svg version="1.1" id="Warstwa_1" xmlns="http://www.w3.org/2000/svg" xmlns:xlink="http://www.w3.org/1999/xlink" x="0px" y="0px"
	 viewBox="0 0 100 100" enable-background="new 0 0 100 100" xml:space="preserve">
<path fill-rule="evenodd" clip-rule="evenodd" d="M64.6,45L23.3,85.5c-3.3,3.3-3.3,8.7,0,12c3.3,3.3,8.7,3.3,12.1,0L76.7,57
	c3.3-3.3,3.3-8.7,0-12C73.3,41.7,67.9,41.7,64.6,45z"/>
<path fill-rule="evenodd" clip-rule="evenodd" d="M76.5,42.6L35.7,2.5c-3.3-3.3-8.7-3.3-12,0c-3.3,3.3-3.3,8.6,0,11.9l40.8,40.1
	c3.3,3.3,8.7,3.3,12,0C79.8,51.2,79.8,45.9,76.5,42.6z"/>
</svg>
