<?xml version="1.0" encoding="utf-8"?>
<!-- Generator: Adobe Illustrator 18.0.0, SVG Export Plug-In . SVG Version: 6.00 Build 0)  -->
<!DOCTYPE svg PUBLIC "-//W3C//DTD SVG 1.1//EN" "http://www.w3.org/Graphics/SVG/1.1/DTD/svg11.dtd">
<svg version="1.1" id="Warstwa_1" xmlns="http://www.w3.org/2000/svg" xmlns:xlink="http://www.w3.org/1999/xlink" x="0px" y="0px"
	 viewBox="0 0 100 100" enable-background="new 0 0 100 100" xml:space="preserve">
<path fill-rule="evenodd" clip-rule="evenodd" d="M98.1,38.6H92l-9.5,45.8c-0.2,0.9-1,1.5-1.8,1.5H19.6c-0.9,0-1.6-0.6-1.8-1.5
	L7.5,38.6H1.9c-1,0-1.9-0.8-1.9-1.9c0-1,0.8-1.9,1.9-1.9h22.5l18.8-20c0.7-0.8,1.9-0.8,2.7-0.1c0.8,0.7,0.8,1.9,0.1,2.7L29.6,34.8
	h41.9L55.2,17.4c-0.7-0.8-0.7-2,0.1-2.7c0.8-0.7,2-0.7,2.7,0.1l18.8,20h21.4c1,0,1.9,0.8,1.9,1.9C100,37.7,99.2,38.6,98.1,38.6z
	 M11.4,38.6L21.1,82h58l9-43.5H11.4z M70.8,72.7c-1,0-1.9-0.8-1.9-1.9l0-22.6c0-1,0.8-1.9,1.9-1.9c1,0,1.9,0.8,1.9,1.9l0,22.6
	c0,0.5-0.2,1-0.6,1.4C71.8,72.5,71.3,72.7,70.8,72.7z M57.6,72.7c-1,0-1.9-0.8-1.9-1.9l0-22.6c0-1,0.8-1.9,1.9-1.9
	c1,0,1.9,0.8,1.9,1.9l0,22.6c0,0.5-0.2,1-0.6,1.4C58.6,72.5,58.1,72.7,57.6,72.7z M44.4,72.7c-1,0-1.9-0.8-1.9-1.9l0-22.6
	c0-1,0.8-1.9,1.9-1.9c1,0,1.9,0.8,1.9,1.9l0,22.6c0,0.5-0.2,1-0.6,1.4C45.3,72.5,44.9,72.7,44.4,72.7z M31.2,72.7
	c-1,0-1.9-0.8-1.9-1.9l0-22.6c0-1,0.8-1.9,1.9-1.9c1,0,1.9,0.8,1.9,1.9l0,22.6c0,0.5-0.2,1-0.6,1.4C32.1,72.5,31.7,72.7,31.2,72.7z"
	/>
</svg>
